<?xml version="1.0" encoding="UTF-8"?>
<svg width="1200pt" height="1200pt" version="1.1" viewBox="0 0 1200 1200" xmlns="http://www.w3.org/2000/svg">
 <g fill="#4d9525">
  <path d="m562.5 506.25c0 20.711-16.789 37.5-37.5 37.5s-37.5-16.789-37.5-37.5 16.789-37.5 37.5-37.5 37.5 16.789 37.5 37.5"/>
  <path d="m712.5 506.25c0 20.711-16.789 37.5-37.5 37.5s-37.5-16.789-37.5-37.5 16.789-37.5 37.5-37.5 37.5 16.789 37.5 37.5"/>
  <path d="m652.5 686.25c4.0195-5.3594 4.875-12.457 2.2422-18.617-2.6289-6.1602-8.3477-10.445-15-11.25-6.6484-0.80078-13.223 2.0078-17.242 7.3672-5.3125 7.082-13.648 11.25-22.5 11.25s-17.188-4.168-22.5-11.25c-4.0195-5.3594-10.594-8.168-17.242-7.3672-6.6523 0.80469-12.371 5.0898-15 11.25-2.6328 6.1602-1.7773 13.258 2.2422 18.617 12.395 16.523 31.844 26.25 52.5 26.25s40.105-9.7266 52.5-26.25z"/>
  <path d="m586.74 650.76c3.5195 3.5117 8.2852 5.4883 13.258 5.4883s9.7383-1.9766 13.258-5.4883l37.5-37.5c3.0664-3.0664 4.9727-7.0977 5.4023-11.414 0.42578-4.3125-0.65625-8.6445-3.0586-12.25l-37.5-56.25c-3.7188-5.5742-10.129-8.7383-16.812-8.3086-6.6875 0.43359-12.633 4.4023-15.602 10.406-2.9688 6.0078-2.5039 13.141 1.2109 18.715l28.969 43.461-26.625 26.625c-3.5117 3.5195-5.4883 8.2852-5.4883 13.258s1.9766 9.7383 5.4883 13.258z"/>
  <path d="m859.8 849.52-44.605-2.8516v0.003906c-22.082-25.66-54.254-40.422-88.109-40.426h-52.086v-33.074c33.172-13.027 62.406-34.414 84.871-62.082 22.461-27.668 37.387-60.672 43.324-95.812 84.75-20.324 135.7-72.676 151.39-156.05 17.727-9.5508 30.836-25.867 36.336-45.238 5.5-19.367 2.9258-40.141-7.1367-57.582-10.062-17.438-26.758-30.062-46.281-34.992v-190.16c-0.03125-24.855-9.918-48.684-27.492-66.258-17.574-17.574-41.402-27.461-66.258-27.492h-355.93c-20.355 0.066406-40.145 6.7305-56.395 18.984-16.254 12.258-28.098 29.449-33.758 49.004l-16.875 59.082-12.695-10.352h0.003906c-3.6875-3.0039-8.375-4.4961-13.117-4.1758-4.7422 0.32031-9.1875 2.4297-12.434 5.9023-3.2461 3.4727-5.0508 8.0508-5.0508 12.805v112.5c0.050781 15.91 6.8672 31.047 18.75 41.625v111.56c-31.828-9.9141-65.777-10.844-98.102-2.6797-4.6094 1.0977-8.6328 3.9023-11.258 7.8477-2.625 3.9414-3.6602 8.7344-2.8984 13.414 14.23 87.148 65.906 141.41 152.81 162.26 5.9375 35.141 20.863 68.145 43.324 95.812 22.465 27.668 51.699 49.055 84.871 62.082v33.074h-52.086c-33.859 0.011719-66.031 14.77-88.125 40.426l-45.898 2.9609h-0.003906c-31.488 4.293-60.359 19.832-81.289 43.742-20.93 23.91-32.508 54.586-32.598 86.363v164.01c0 4.9727 1.9766 9.7422 5.4922 13.258 3.5156 3.5156 8.2852 5.4922 13.258 5.4922h712.5c4.9727 0 9.7422-1.9766 13.258-5.4922 3.5156-3.5156 5.4922-8.2852 5.4922-13.258v-164.01c-0.15234-31.98-11.918-62.82-33.109-86.773s-50.367-39.395-82.09-43.445zm-53.551-273.34v-79.836c24.352-20.227 54.793-31.68 86.438-32.531 6.9258 2.5469 14.191 4.0586 21.562 4.4805-6.3203 26.184-19.75 50.113-38.809 69.152-19.055 19.035-43 32.441-69.191 38.734zm0-124.89v-1.293c0 0.41406 0.20703 0.75 0.22656 1.1445zm47.887-20.043c-3.5078 0.88281-6.918 2.1758-10.387 3.2812v-108.02l18.488 18.488c-10.363 11.637-16.742 26.281-18.199 41.797-1.457 15.516 2.082 31.09 10.098 44.453zm64.613-75c12.109-0.050781 23.496 5.7656 30.551 15.609 7.0547 9.8438 8.9023 22.496 4.9609 33.945-3.9414 11.453-13.188 20.285-24.805 23.703-9.5117-1.7539-19.137-2.7969-28.801-3.1133-9.7891-5.3633-16.668-14.816-18.758-25.781-2.0898-10.965 0.83203-22.289 7.9648-30.871 7.1289-8.5859 17.727-13.535 28.887-13.492zm-525 219.94c-26.793-6.4023-51.238-20.23-70.527-39.898-19.289-19.668-32.641-44.375-38.523-71.289 39.148-5.4648 78.781 5.9297 109.05 31.352zm0-124.89-0.22656-0.13281c0-0.41406 0.22656-0.75 0.22656-1.1641zm0-151.29c-4.9727 0-9.7422-1.9766-13.258-5.4922-3.5156-3.5156-5.4922-8.2852-5.4922-13.258v-73.012l61.367 50.043c3.5742 2.9102 8.0898 4.4062 12.695 4.1992 4.6016-0.20703 8.9688-2.1016 12.262-5.3242l63.523-62.043 61.875 61.875h0.003906c3.5156 3.5156 8.2812 5.4883 13.254 5.4883 4.9727 0 9.7422-1.9727 13.258-5.4883l61.762-61.727 61.742 61.742v0.003906c3.2656 3.2617 7.6172 5.2109 12.223 5.4648 4.6094 0.25781 9.1484-1.1953 12.754-4.0781l63.281-50.625v73.48c0 4.9727-1.9766 9.7422-5.4922 13.258-3.5156 3.5156-8.2852 5.4922-13.258 5.4922zm37.5 281.25v-127.5c23.82 4.5273 47.984 6.9922 72.227 7.3672 48.555 0.25781 95.848-15.445 134.61-44.699 38.949 24.777 84.539 37.07 130.67 35.23v129.6c0 44.754-17.777 87.676-49.426 119.32-31.648 31.648-74.57 49.426-119.32 49.426s-87.676-17.777-119.32-49.426c-31.648-31.648-49.426-74.57-49.426-119.32zm206.25 202.67v41.082c0 13.398-7.1484 25.777-18.75 32.477-11.602 6.6992-25.898 6.6992-37.5 0-11.602-6.6992-18.75-19.078-18.75-32.477v-41.082c24.773 4.7773 50.227 4.7773 75 0zm-225 341.08h-37.5v-112.5c0-6.6992 3.5742-12.887 9.375-16.238 5.8008-3.3477 12.949-3.3477 18.75 0 5.8008 3.3516 9.375 9.5391 9.375 16.238zm310.8-204.38c-4.3828-2.1914-9.4531-2.582-14.121-1.082-4.6641 1.4961-8.5586 4.7617-10.848 9.0977-2.2891 4.332-2.7891 9.3906-1.3945 14.09l11.25 37.949-1.875 0.52344v0.003906c-17.695 5.1328-36.676 3.3984-53.145-4.8594-16.473-8.2539-29.219-22.422-35.691-39.672-1.8008-4.7891-5.4805-8.6328-10.188-10.645-4.7031-2.0078-10.023-2.0078-14.73 0-4.7031 2.0117-8.3828 5.8555-10.184 10.645-6.4727 17.25-19.223 31.418-35.691 39.672-16.473 8.2578-35.453 9.9922-53.145 4.8594l-1.875-0.52344 11.25-37.949v-0.003906c1.3711-4.6289 0.90234-9.6094-1.3047-13.902s-5.9844-7.5703-10.551-9.1484c-4.5625-1.5742-9.5586-1.332-13.945 0.68359-26.16 12.301-56.109 13.797-83.363 4.1602v-1.6133 0.003906c0.023438-20.988 8.375-41.109 23.215-55.949s34.961-23.191 55.949-23.215h54.75c5.4961 21.594 20.352 39.605 40.508 49.105 20.156 9.5039 43.5 9.5039 63.656 0 20.156-9.5 35.012-27.512 40.508-49.105h54.75c20.988 0.023438 41.109 8.375 55.949 23.215s23.191 34.961 23.215 55.949v2.3633-0.003906c-26.953 10.887-57.352 9.2148-82.949-4.5547zm101.7 204.38h-37.5v-112.5c0-6.6992 3.5742-12.887 9.375-16.238 5.8008-3.3477 12.949-3.3477 18.75 0 5.8008 3.3516 9.375 9.5391 9.375 16.238z"/>
 </g>
</svg>
