<?xml version="1.0" encoding="UTF-8"?>
<svg width="1200pt" height="1200pt" version="1.1" viewBox="0 0 1200 1200" xmlns="http://www.w3.org/2000/svg">
 <path d="m568.23 48.102c-53.238 1.6797-139.85 6.9141-229.58 14.027-86.652 6.5547-142.96 16.027-191.61 32.254-42.605 13.988-67.508 28.496-91.129 53.117-23.582 24.582-39.688 57.633-48.242 99.922-8.9141 43.766-10.031 101-3.3164 188.73 6.7539 90.648 16.906 177.38 39.848 343.32 14.629 105.55 21.184 136.17 34.891 162.19 8.9141 16.785 25.059 34.852 40.969 45.285l7.9531 5.4375-4.1172 9.5117c-9.4336 21.703-17.145 33.375-30.375 46.645-18.227 18.266-39.289 30.098-65.469 36.652-9.5117 2.3594-11.109 2.957-14.309 6.2734-6.9141 6.8359-7.5156 10.832-2.3984 15.227 4.8359 4.1953 25.66 17.746 37.488 24.262 17.707 9.9102 33.375 16.027 50.398 19.703 9.793 2.0391 42.766 2.2773 55.754 0.28125 44.086-6.3945 69.023-19.184 98.883-50.238l10.633-11.031 14.75 1.5195c33.574 3.4766 85.652 4.1172 177.62 2.3164 136.29-2.6367 183.25-6.5938 291.73-24.781 71.582-11.992 105.68-20.383 132.21-32.492 48.52-22.262 104.8-60.551 141.93-96.523 37.73-36.852 73.301-90.926 93.367-142.41 16.387-41.848 27.539-84.055 41.805-158.91 26.5-137.69 30.336-163.15 36.73-243.05 4.957-63.391 5.3945-69.145 5.2773-101.4v-30.055l-3.875-17.387c-6.3164-28.176-11.312-41.566-20.145-55.555-10.23-15.629-27.219-33.133-42.125-43.047-20.664-13.828-69.863-34.055-95.523-39.289-4.8359-1-12.309-3.1562-16.387-4.8359-75.66-30.496-190.65-50-327.26-55.438-20.625-0.83984-104.64-0.96094-126.38-0.23828zm-397.28 80.055c-24.82 8.1953-53.559 27.816-79.418 54.238-17.945 18.305-28.219 32.453-36.969 51.117-6.5156 13.867-9.1133 22.582-9.2344 31.656-0.16016 7.832-0.12109 7.9922 2.4375 9.4336 3.7578 2.1172 7.3945 0 8.4727-5.1172 3.4766-16.707 4.6758-20.344 11.391-33.812 8.5117-17.145 18.066-30.137 33.293-45.445 24.539-24.781 53.238-44.484 74.898-51.68 3.2383-1.0781 7.3125-1.918 9.0312-1.918 5.5547 0 8.2734-5.5938 4.4766-9.4336-2.5977-2.6367-8.2344-2.2773-18.387 0.96094zm543.8-66.746c153.92 8.793 273.22 33.812 337.45 70.543 45.965 26.379 66.785 58.715 74.738 115.95 3.3555 24.141 3.8359 34.613 3.8359 86.852 0 61.551-2.1992 103.52-7.9531 151.2-9.1523 74.98-29.215 160.83-57.234 245.12-29.777 89.488-56.074 138.21-96.684 178.5-15.348 15.227-28.176 25.621-45.203 36.77-73.781 48.32-179.94 70.863-372.86 79.176-133.53 5.8359-252.52 6.7148-294.12 2.1992-7.1953-0.75781-10.832-0.75781-12.309-0.16016-1.1992 0.64062-5.1562 5.1953-8.7148 10.273-9.5117 13.629-25.66 29.496-38.891 38.25-17.984 11.832-39.008 20.941-58.395 25.141-11.27 2.3984-31.973 3.3164-44.883 1.918-12.828-1.3594-53.598-7.832-53.598-8.4727 0-0.39844 3.5586-1.7969 7.832-3.3164 9.5117-3.2383 26.098-11.473 33.895-16.746 25.859-17.348 42.008-38.93 57.312-76.5 4.7148-11.391 5.0742-14.629 2.6367-17.387-1.6797-1.8398-5.875-2.2773-7.3125-0.75781-1.918 1.8789-20.023-11.832-28.297-21.262-23.023-26.617-30.617-50.801-43.406-138.41-29.016-197.88-47.082-362.71-49.762-454.52-1.2383-42.805 0.32031-76.938 5.0742-105.2 7.1523-41.805 21.023-74.738 42.605-100.16 39.047-46.281 121.82-72.863 262.55-84.891 72.422-6.0742 181.3-12.789 248.48-15.348 17.387-0.67969 126.38 0.32031 143.21 1.2383z" fill-rule="evenodd"/>
</svg>
