<?xml version="1.0" encoding="UTF-8"?>
<svg width="1200pt" height="1200pt" version="1.1" viewBox="0 0 1200 1200" xmlns="http://www.w3.org/2000/svg">
 <g fill="#4d9525">
  <path d="m1078 1006.7v115.5h-867.3v-115.5c0-73 38.199-140.8 100.6-178.7l59 25.602-77.699 101.1h148.9v115.1l126.8-55 76.301 99.301 76.301-99.199 126.8 55-0.003906-115.21h148.9l-77.699-101.1 58.801-25.5c62.199 37.902 100.3 105.6 100.3 178.6z"/>
  <path d="m855.7 725.4c1.3984-3.1992 2.6992-6.3008 4-9.5 2.6992-6.6992 5.1992-13.5 7.5-20.398 2.3984 1.1016 4.8984 1.8984 7.5 2.5 3.1992 0.69922 6.5 1.1016 9.8008 1.1016 15.699 0 34.102-7.5 54.801-22.5 63-45.301 63.699-192.2 63.699-198.5v-23.602l-78.801 72-20.5 18.699-20.301 18.5c-0.30078-5.3008-0.80078-10.5-1.3008-15.699h-20.898c1.5 12.699 2.1992 25.602 2.1992 38.398v0.30078c0.10156 29.699-3.8984 59.301-11.801 87.898v0.19922c-3.1016 11.102-6.8008 22-11.102 32.699-1.3008 3.1992-2.6016 6.3984-4 9.6016-1.3984 3.1016-2.8008 6.3008-4.3984 9.3984-8.6016 17.898-19.199 34.801-31.5 50.301-2.8008 3.6016-5.6992 7-8.6992 10.398-3.1992 3.6016-6.3984 7-9.6992 10.398-37.699 37.898-85.699 60.699-138 60.699s-100.3-22.699-138-60.699c-3.3008-3.3008-6.6016-6.8008-9.6992-10.398-3-3.3008-5.8984-6.8008-8.6992-10.398-12.301-15.602-22.801-32.398-31.398-50.199-1.5-3.1016-3-6.1992-4.3984-9.3984-1.3984-3.1992-2.6992-6.3984-4-9.6016-4.3008-10.801-8.1016-21.801-11.102-33-7.8984-28.602-11.801-58.102-11.801-87.801v-0.19922c0-12.898 0.69922-25.801 2.1992-38.602h-21c-0.60156 5.1992-1 10.5-1.3984 15.699l-20.301-18.5c-8.8984-3.6016-16.102-10.199-20.398-18.699l-78.801-72.102-0.003906 23.605c0 6.1992 0.69922 153.2 63.699 198.5 20.801 15 39.102 22.5 54.801 22.5 3.3008 0 6.6016-0.39844 9.8008-1.1016 2.6016-0.60156 5.1016-1.3984 7.5-2.5 2.3008 6.8984 4.8008 13.801 7.5 20.5 1.3008 3.1992 2.6016 6.3984 4 9.6016 1.3984 3.1992 2.8008 6.3008 4.3984 9.3984l-144.3 62.602 16.699 7.3008 12.301 5.3984 12.801 5.5 68.102 29.5-68.301 88.801h127.5v104.2l112.6-48.801 69.699 90.602 69.699-90.602 112.6 48.801v-104.3h127.5l-68-88.797 67.898-29.5 12.801-5.5 12.301-5.3008 16.898-7.3008-144.6-62.699c1.5039-3.1016 3.0039-6.1992 4.4023-9.4023zm21.801-75.098 1.3984-1.6992 77.102-95.102-73.199 64.699c0.80078-8.8984 1.1992-17.898 1.3008-26.898l97-88.801c-1.1016 17.699-3.1992 35.301-6.1992 52.699-9.1992 52.5-25.801 88.5-47.801 104.4-19.301 13.801-36.102 20.301-47.301 18.102-2.3984-0.39844-4.6992-1.3984-6.6992-2.8008l-0.30078-0.19922c1.1992-5.0977 2.8984-13.801 4.6992-24.398zm-468.7 27.5c-11.199 2.1992-28.102-4.3008-47.301-18.102-22-15.801-38.5-51.801-47.801-104.1-3-17.5-5.1016-35.199-6.3008-53l97 88.801c0.10156 9.1016 0.60156 18 1.3008 26.898l-73.102-64.699 77.199 95c1.6016 9 3.5 17.801 5.6992 26.5-1.9961 1.3008-4.2969 2.3008-6.6953 2.7031z"/>
  <path d="m657.9 84.199 0.10156-0.19922s-270-67.602-413.7 244.2c-11.801 25.602-20.301 46-25.898 61.898-39.602-12-81.398 10.398-93.301 50-11.898 39.602 10.398 81.398 50 93.301 39.602 11.898 81.398-10.398 93.301-50 6.3008-20.898 3.1992-43.5-8.5-61.898 31.801-19.699 74.801-51.398 117.2-72.898 35.602-161.2 128.6-218.6 128.6-218.6-69.898 72.398-104.3 204.7-104.3 204.7l-3.4023 4.3008c1.1016-0.5 2.3008-0.89844 3.3984-1.3984-6.1016 23.801-10.801 47.801-14.301 72.102l32.801-44.699c6.8008-9.3008 19.699-11.301 29-4.5 1.6992 1.3008 3.1992 2.8008 4.5 4.5l15.898 21.699 6.3984 8.6992 6.5 8.8008 6.3984 8.8008 35.199-48c6.8008-9.3008 19.801-11.301 29-4.5 1.6992 1.3008 3.1992 2.8008 4.5 4.5l35.199 48 35.199-48c6.8008-9.3008 19.699-11.301 29-4.5 1.6992 1.3008 3.1992 2.8008 4.5 4.5l35.199 48 35.199-48c6.8008-9.3008 19.699-11.301 29-4.5 1.6992 1.3008 3.1992 2.8008 4.5 4.5l35.199 48 6.3984-8.8008 6.5-8.8008 6.3984-8.6992 15.898-21.699c6.8008-9.3008 19.801-11.301 29-4.5 1.6992 1.3008 3.1992 2.8008 4.5 4.5l34.5 47.102c-39.184-258-181.48-320.71-245.59-327.91zm-407 377.6c0 29.898-24.199 54.102-54.102 54.102-29.898 0-54.102-24.199-54.102-54.102 0-29.898 24.199-54.102 54.102-54.102 18.199 0 35.199 9.1016 45.199 24.301 5.7031 8.8008 8.8047 19.199 8.9023 29.801z"/>
  <path d="m906.5 451.6v63.801c-0.19922 0.5-0.39844 1.1016-0.69922 1.6016-0.10156 0.19922-0.19922 0.5-0.30078 0.69922s-0.19922 0.39844-0.30078 0.60156l-0.30078 0.5-0.10156 0.19922c-0.10156 0.19922-0.19922 0.30078-0.30078 0.5-0.10156 0.19922-0.39844 0.5-0.60156 0.80078-0.19922 0.30078-0.39844 0.5-0.60156 0.80078l-0.30078 0.30078-0.10156 0.10156c-0.19922 0.30078-0.5 0.5-0.69922 0.80078-0.30078 0.30078-0.60156 0.60156-0.89844 0.80078l-1 0.79688c-0.30078 0.19922-0.60156 0.5-1 0.69922l-0.19922 0.10156-0.5 0.30078c-0.30078 0.19922-0.60156 0.30078-0.80078 0.5l-0.60156 0.30078c-0.19922 0.10156-0.5 0.19922-0.69922 0.30078-0.19922 0.10156-0.60156 0.19922-0.89844 0.30078h-0.10156c-0.19922 0.10156-0.39844 0.19922-0.60156 0.19922l-0.19922 0.10156h-0.20312l-0.5 0.10156c-0.30078 0.10156-0.60156 0.19922-0.80078 0.19922l-0.5 0.10156c-0.30078 0.10156-0.60156 0.10156-0.89844 0.10156-0.30078 0-0.60156 0.10156-1 0.10156h-0.60156-0.80078l-489.99-0.015625c-10.199 0-18.5-8.3008-18.5-18.398v-55.902l3-4 0.39844-0.60156 52.199-71.301 20 27.301 6.6016 9 6.6016 9.1016 18.699 25.602 51.898-70.898 51.898 70.898 51.898-70.898 51.898 70.898 51.898-70.898 51.898 70.898 18.699-25.602 6.6016-9.1016 6.6016-9 20-27.301 52.699 71.898z"/>
 </g>
</svg>
